<svg xmlns="http://www.w3.org/2000/svg" viewBox="0 0 84.13 151.67"><defs><style>.cls-1{fill:#fff;}.cls-2{fill:#a460f9;}</style></defs><g id="OBJECTS"><path class="cls-1" d="M270.61,261.9l8.71-8.7a25.53,25.53,0,0,1-9.94,16.73A26.09,26.09,0,0,0,270.61,261.9Zm-47.16-73.08,9.6,8-9.6,8-9.61-8Zm-10.6,73.43V200.54l8.91,7.41v65.6a33.82,33.82,0,0,0,1.79,10.94A28.09,28.09,0,0,1,212.85,262.25ZM253,302.18c-15.54,0-27.72-12.58-27.72-28.63v-65.7l8.78-7.31v55A41.83,41.83,0,0,0,238.6,275a1.67,1.67,0,0,0,.27.51c5.37,9.88,14.78,16.18,25.94,16.18a31.33,31.33,0,0,0,12-2.35A28.54,28.54,0,0,1,253,302.18Zm27.47-18.59a1.71,1.71,0,0,0-.67.43,27.87,27.87,0,0,1-15,4.21,25.21,25.21,0,0,1-20.13-10.18,28.93,28.93,0,0,0,7.2.91c16.73,0,29.22-10.87,31.05-26.36l9.14,9.13A26.7,26.7,0,0,1,280.45,283.59Z" transform="translate(-207.94 -150.52)"/><path class="cls-2" d="M230.15,150.52l7.35,8.84H227l-7.35-8.84ZM227,162.86H237.5l-7.35,8.84H219.66ZM215.93,151.5l8,9.61-8,9.6-8-9.6Z" transform="translate(-207.94 -150.52)"/></g></svg>